{"title":"Pusher 2012 HDRiP AC3-2 0 XviD-AXED","uid":7682731,"size":1471706078,"categoryP":"video","categoryS":"movies","magnet":"?xt=urn:btih:c57c0173f92f699d5afefea46579208722bf20dc&amp;dn=Pusher+2012+HDRiP+AC3-2+0+XviD-AXED&amp;tr=udp%3A%2F%2Ftracker.openbittorrent.com%3A80&amp;tr=udp%3A%2F%2Fopen.demonii.com%3A1337&amp;tr=udp%3A%2F%2Ftracker.coppersurfer.tk%3A6969&amp;tr=udp%3A%2F%2Fexodus.desync.com%3A6969","seeders":2,"leechers":2,"uploader":"HeroMaster","files":-1,"time":1348863825,"description":"Pusher 2012 HDRiP AC3-2 0 XviD-AXED\n\nIMDB:  &lt;a href=&quot;\nhttp://www.imdb.com/title/tt1921070/&quot; rel=&quot;nofollow&quot; target=&quot;_NEW&quot;&gt;\nhttp://www.imdb.com/title/tt1921070/&lt;/a&gt;\n\nPLOT INFO:\nIn London, a drug pusher's life spins out of control over the course of one week.\n\nMEDIAINFO:\nGeneral\nComplete name                            : Pusher.2012.HDRiP.AC3-2.0.XviD-AXED.avi\nFormat                                   : AVI\nFormat/Info                              : Audio Video Interleave\nFile size                                : 1.35 GiB\nDuration                                 : 1h 29mn\nOverall bit rate                         : 2 165 Kbps\n\nVideo\nID                                       : 0\nFormat                                   : MPEG-4 Visual\nFormat profile                           : Advanced Simple@L5\nFormat settings, BVOP                    : 2\nFormat settings, QPel                    : No\nFormat settings, GMC                     : No warppoints\nFormat settings, Matrix                  : Default (H.263)\nMuxing mode                              : Packed bitstream\nCodec ID                                 : XVID\nCodec ID/Hint                            : XviD\nDuration                                 : 1h 29mn\nBit rate                                 : 1 966 Kbps\nWidth                                    : 720 pixels\nHeight                                   : 304 pixels\nDisplay aspect ratio                     : 2.35:1\nFrame rate                               : 23.976 fps\nColor space                              : YUV\nChroma subsampling                       : 4:2:0\nBit depth                                : 8 bits\nScan type                                : Progressive\nCompression mode                         : Lossy\nBits/(Pixel*Frame)                       : 0.375\nStream size                              : 1.23 GiB (91%)\nWriting library                          : XviD 64\n\nAudio\nID                                       : 1\nFormat                                   : AC-3\nFormat/Info                              : Audio Coding 3\nMode extension                           : CM (complete main)\nFormat settings, Endianness              : Big\nCodec ID                                 : 2000\nDuration                                 : 1h 29mn\nBit rate mode                            : Constant\nBit rate                                 : 192 Kbps\nChannel(s)                               : 2 channels\nChannel positions                        : Front: L R\nSampling rate                            : 48.0 KHz\nBit depth                                : 16 bits\nCompression mode                         : Lossy\nStream size                              : 123 MiB (9%)\nAlignment                                : Aligned on interleaves\nInterleave, duration                     : 64 ms (1.53 video frames)\nInterleave, preload duration             : 192 ms\nTitle                                    : pusher\n\n\nSOURCE: \n720p wmv Digital VOD Rental\n\n\nNOTES: \nEnjoy this new English remake of the cult classic film before it even hits theatres!\n\nAXED! - The only name to trust for VOD/HDRiP!\n\n\nPoster:\n\n &lt;a href=&quot;\nhttp://i.imgur.com/9PvTx.jpg&quot; rel=&quot;nofollow&quot; target=&quot;_NEW&quot;&gt;\nhttp://i.imgur.com/9PvTx.jpg&lt;/a&gt;\n\n\nScreenshots:\n\n &lt;a href=&quot;\nhttp://i.imgur.com/4l0gl.png&quot; rel=&quot;nofollow&quot; target=&quot;_NEW&quot;&gt;\nhttp://i.imgur.com/4l0gl.png&lt;/a&gt;\n\n &lt;a href=&quot;\nhttp://i.imgur.com/iW8ZZ.png&quot; rel=&quot;nofollow&quot; target=&quot;_NEW&quot;&gt;\nhttp://i.imgur.com/iW8ZZ.png&lt;/a&gt;\n\n &lt;a href=&quot;\nhttp://i.imgur.com/Auwpu.png&quot; rel=&quot;nofollow&quot; target=&quot;_NEW&quot;&gt;\nhttp://i.imgur.com/Auwpu.png&lt;/a&gt;\n\n\nENJOY!","torrent":{"xt":"urn:btih:c57c0173f92f699d5afefea46579208722bf20dc","amp;dn":"Pusher+2012+HDRiP+AC3-2+0+XviD-AXED","amp;tr":["udp%3A%2F%2Ftracker.openbittorrent.com%3A80","udp%3A%2F%2Fopen.demonii.com%3A1337","udp%3A%2F%2Ftracker.coppersurfer.tk%3A6969","udp%3A%2F%2Fexodus.desync.com%3A6969"],"infoHash":"c57c0173f92f699d5afefea46579208722bf20dc","infoHashBuffer":{"type":"Buffer","data":[197,124,1,115,249,47,105,157,90,254,254,164,101,121,32,135,34,191,32,220]},"announce":[],"urlList":[]}}